<?xml version="1.0" encoding="UTF-8"?>
<svg id="Layer_2" xmlns="http://www.w3.org/2000/svg" viewBox="0 0 205.58 53.12">
  <defs>
    <style>
      .cls-1 {
        fill: #ed212c;
      }

      .cls-2 {
        fill: #fff;
      }
    </style>
  </defs>
  <g id="Layer_1-2" data-name="Layer_1">
    <g>
      <g>
        <g>
          <path class="cls-2" d="M83.14,16.88c0,2.76-.98,5.11-2.94,7.05-1.98,1.96-4.35,2.94-7.11,2.94s-5.12-.97-7.08-2.92c-1.96-1.95-2.94-4.3-2.94-7.08s.97-5.2,2.91-7.16c1.94-1.96,4.31-2.94,7.11-2.94s5.14.98,7.11,2.94c1.96,1.96,2.94,4.35,2.94,7.16ZM79.58,16.81c0-1.83-.63-3.38-1.88-4.66-1.27-1.26-2.8-1.9-4.61-1.9s-3.33.63-4.58,1.9c-1.25,1.27-1.87,2.82-1.87,4.66s.64,3.33,1.93,4.63c1.27,1.32,2.78,1.98,4.53,1.98s3.3-.66,4.58-1.98c1.27-1.3,1.9-2.85,1.9-4.63Z"/>
          <path class="cls-2" d="M98.45,26.41h-3.49v-6.79c0-.9-.02-1.5-.06-1.8-.09-.69-.26-1.25-.52-1.66-.26-.42-.59-.73-.99-.93-.42-.21-.86-.31-1.33-.31s-.96.11-1.4.34c-.45.24-.78.53-.99.86-.21.35-.35.75-.44,1.22-.11.47-.16,1.17-.16,2.11v6.98h-3.46v-14.45h3.2v1.33c.45-.59,1.03-1.05,1.74-1.35.7-.3,1.44-.45,2.24-.45s1.51.16,2.24.47c.71.31,1.34.75,1.87,1.33l.39.44c.5.7.83,1.53.99,2.5.11.63.16,1.53.16,2.71v7.47Z"/>
          <path class="cls-2" d="M121.99,13.01c0,.99-.19,1.91-.57,2.76-.4.87-.98,1.6-1.75,2.19-.55.45-1.19.75-1.9.91-.73.17-2,.26-3.83.26h-.7v7.29h-3.57V7.15h4.52c1.41,0,2.3.03,2.68.08.95.12,1.82.45,2.61.97.76.52,1.37,1.21,1.82,2.05.45.85.68,1.77.68,2.76ZM118.4,13.06c0-.57-.17-1.06-.5-1.46-.35-.4-.8-.68-1.35-.83-.22-.07-.51-.11-.86-.13s-.74-.02-1.18-.02h-1.27v5.04h1.33c.45,0,.84-.02,1.17-.05.33-.02.63-.07.91-.15.52-.17.95-.48,1.28-.92.31-.42.47-.91.47-1.48Z"/>
          <path class="cls-2" d="M136.75,26.41h-3.49v-7.05c0-1.77-.27-2.98-.81-3.62-.47-.55-1.18-.83-2.13-.83-1.02,0-1.81.42-2.37,1.25-.26.4-.41.84-.47,1.33-.05.49-.08,1.13-.08,1.93v7h-3.46V7.15h3.46v5.91c.36-.49.9-.87,1.61-1.14.71-.28,1.41-.42,2.08-.42.78,0,1.56.17,2.34.52.76.35,1.42.83,1.98,1.45.53.65.91,1.44,1.12,2.4.14.66.2,1.57.2,2.73v7.81Z"/>
          <path class="cls-2" d="M154.24,26.41h-3.2v-1.95c-.54.74-1.26,1.33-2.16,1.76-.92.44-1.85.65-2.78.65-1.09,0-2.09-.22-2.99-.65-.9-.42-1.67-1.01-2.31-1.77-1.2-1.44-1.8-3.19-1.8-5.26,0-1.04.15-1.98.45-2.81.28-.83.74-1.62,1.4-2.37,1.42-1.68,3.21-2.52,5.36-2.52s3.67.84,4.84,2.52v-2.05h3.2v14.45ZM150.94,19.17c0-1.23-.38-2.26-1.14-3.07-.78-.8-1.79-1.2-3.02-1.2s-2.33.42-3.13,1.25-1.19,1.89-1.19,3.18c0,1.18.42,2.17,1.25,2.97.83.8,1.84,1.2,3.02,1.2,1.25,0,2.27-.41,3.05-1.22.78-.82,1.17-1.85,1.17-3.1Z"/>
          <path class="cls-2" d="M163.41,14.87c-.81,0-1.51.23-2.1.68-.44.35-.71.75-.81,1.22-.12.47-.18,1.09-.18,1.85v7.79h-3.46v-14.45h3.15v1.3c.4-.61.85-1.06,1.35-1.35.5-.28,1.1-.42,1.79-.42h.26v3.38Z"/>
          <path class="cls-2" d="M187.55,26.41h-3.46v-7.68c0-.68-.03-1.22-.08-1.64-.05-.4-.19-.78-.42-1.12-.23-.33-.54-.59-.93-.78-.42-.19-.83-.29-1.25-.29-1.08,0-1.87.42-2.39,1.25-.21.33-.35.75-.42,1.28-.08.52-.13,1.04-.13,1.56v7.42h-3.49v-8.02c0-.54-.03-.97-.08-1.3-.07-.31-.22-.65-.47-1.02-.24-.36-.57-.65-.99-.86s-.84-.31-1.28-.31c-1.21,0-2.03.51-2.45,1.53-.24.61-.36,1.64-.36,3.1v6.87h-3.46v-14.45h3.18v1.33c.31-.59.83-1.05,1.56-1.35.73-.3,1.47-.45,2.24-.45,1.63,0,2.92.6,3.85,1.8l.34.46.37-.46c.5-.59,1.13-1.05,1.9-1.35.75-.3,1.53-.45,2.34-.45.92,0,1.74.14,2.47.42.73.28,1.39.73,1.96,1.38.57.66.97,1.44,1.19,2.34.17.71.26,1.6.26,2.68v8.1Z"/>
          <path class="cls-2" d="M205.03,26.41h-3.2v-1.95c-.54.74-1.26,1.33-2.16,1.76-.92.44-1.85.65-2.78.65-1.09,0-2.09-.22-2.99-.65-.9-.42-1.67-1.01-2.31-1.77-1.2-1.44-1.8-3.19-1.8-5.26,0-1.04.15-1.98.45-2.81.28-.83.74-1.62,1.4-2.37,1.42-1.68,3.21-2.52,5.36-2.52s3.67.84,4.84,2.52v-2.05h3.2v14.45ZM201.73,19.17c0-1.23-.38-2.26-1.14-3.07-.78-.8-1.79-1.2-3.02-1.2s-2.33.42-3.13,1.25-1.19,1.89-1.19,3.18c0,1.18.42,2.17,1.25,2.97.83.8,1.84,1.2,3.02,1.2,1.25,0,2.27-.41,3.05-1.22.78-.82,1.17-1.85,1.17-3.1Z"/>
        </g>
        <g>
          <path class="cls-2" d="M63.02,39.31c0-.46.13-.9.38-1.33.25-.43.64-.83,1.18-1.19.54-.36,1.22-.67,2.05-.93s1.82-.46,2.97-.58v5.91h2.46v1.23h-3.08c-.13-.08-.23-.17-.32-.27s-.16-.19-.21-.27c-.06-.09-.1-.18-.14-.27-.06.15-.17.28-.34.41-.15.1-.36.19-.64.27-.28.08-.66.12-1.14.12-1.09,0-1.9-.28-2.41-.83s-.77-1.31-.77-2.28ZM64.44,33.09c0-.27.09-.5.27-.68.18-.18.4-.27.67-.27s.48.09.66.27c.18.18.27.41.27.68s-.09.48-.27.65c-.18.17-.4.26-.66.26s-.49-.09-.67-.26c-.18-.17-.27-.39-.27-.65ZM64.49,39.33c0,.4.05.72.15.97.1.24.22.43.37.56.15.13.32.22.5.27.19.04.37.07.56.07h2.22v-4.43c-.7.12-1.29.28-1.77.46-.48.18-.87.39-1.17.61-.3.22-.51.46-.65.71-.14.25-.2.51-.2.79ZM67.24,33.09c0-.27.09-.5.27-.68.18-.18.4-.27.67-.27s.48.09.66.27c.18.18.27.41.27.68s-.09.48-.27.65c-.18.17-.4.26-.66.26s-.48-.09-.67-.26c-.18-.17-.27-.39-.27-.65Z"/>
          <path class="cls-2" d="M74.76,41.19v-5.64l1.32-.38v6.02h2.77v1.23h-7.3v-1.23h3.21ZM73.02,44.85c0-.27.09-.5.27-.68.18-.18.4-.27.67-.27s.48.09.66.27c.18.18.27.41.27.68s-.09.48-.27.65c-.18.17-.4.26-.66.26s-.48-.09-.67-.26c-.18-.17-.27-.39-.27-.65ZM75.82,44.85c0-.27.09-.5.27-.68.18-.18.4-.27.67-.27s.48.09.66.27c.18.18.27.41.27.68s-.09.48-.27.65c-.18.17-.4.26-.66.26s-.48-.09-.67-.26c-.18-.17-.27-.39-.27-.65Z"/>
          <path class="cls-2" d="M82.2,41.19v-5.64l1.32-.38v7.25h-5.18v-1.23h3.86ZM80.21,33.09c0-.27.09-.5.27-.68.18-.18.4-.27.67-.27s.48.09.66.27c.18.18.27.41.27.68s-.09.48-.27.65c-.18.17-.4.26-.66.26s-.49-.09-.67-.26c-.18-.17-.27-.39-.27-.65Z"/>
          <path class="cls-2" d="M85.41,31.22c.28.26.63.55,1.03.87s.82.66,1.25,1.03c.43.37.85.76,1.28,1.17.43.41.81.84,1.15,1.28.02-.02.06-.08.12-.18.06-.1.12-.21.18-.35.06-.14.12-.29.16-.45s.07-.31.07-.44v-2.72l1.32-.37v3.14c0,.91-.34,1.76-1.03,2.55.95,1.46,1.42,2.76,1.42,3.9v1.76h-7.23v-2.03c.42-.27.84-.58,1.26-.91.42-.34.81-.67,1.17-1,.37-.33.7-.65,1-.95.3-.3.55-.55.74-.74-.32-.45-.68-.87-1.09-1.27s-.82-.79-1.24-1.14c-.42-.36-.83-.69-1.23-.99-.4-.3-.75-.57-1.04-.81l.7-1.33ZM91.14,41.19c0-.25-.03-.52-.09-.82-.06-.3-.14-.59-.24-.88-.1-.29-.23-.57-.37-.85-.14-.27-.3-.51-.47-.72-.24.24-.5.51-.78.8-.28.3-.58.59-.89.89-.31.29-.64.58-.97.85-.33.27-.66.51-.99.72h4.79Z"/>
          <path class="cls-2" d="M94.01,40.93c.13.05.26.09.41.14.13.03.27.06.44.09.17.02.36.03.56.03h4.12c.01-.33-.03-.72-.11-1.18-.09-.46-.25-.92-.49-1.4s-.57-.94-.99-1.38c-.42-.44-.97-.81-1.64-1.1l.39-1.44c.71.27,1.36.69,1.97,1.25.25.24.5.52.76.86.26.33.5.71.72,1.14.22.43.42.91.59,1.45s.3,1.14.38,1.8h1.92v1.23h-7.76c-.2,0-.39-.01-.55-.04s-.3-.06-.43-.09c-.14-.04-.26-.09-.38-.14l.09-1.21Z"/>
          <path class="cls-2" d="M105.74,41.19v-5.64l1.32-.38v6.02h2.77v1.23h-7.3v-1.23h3.21ZM103.99,44.85c0-.27.09-.5.27-.68.18-.18.4-.27.67-.27s.48.09.66.27c.18.18.27.41.27.68s-.09.48-.27.65c-.18.17-.4.26-.66.26s-.48-.09-.67-.26c-.18-.17-.27-.39-.27-.65ZM106.8,44.85c0-.27.09-.5.27-.68.18-.18.4-.27.67-.27s.48.09.66.27c.18.18.27.41.27.68s-.09.48-.27.65c-.18.17-.4.26-.66.26s-.48-.09-.67-.26c-.18-.17-.27-.39-.27-.65Z"/>
          <path class="cls-2" d="M110.91,41.19v-4.08l1.32-.43v2.58c1.12-1.17,2.17-2.04,3.17-2.6,1-.56,1.94-.84,2.83-.84.65,0,1.17.15,1.56.45.39.3.7.69.92,1.15.22.47.37.98.45,1.53s.13,1.09.14,1.6v.63h1.49v1.23h-13.49v-1.23h1.61ZM119.99,41.19v-1.55c0-.32-.03-.63-.08-.94-.05-.31-.16-.58-.33-.83s-.39-.44-.68-.59-.68-.22-1.15-.22c-.33,0-.73.1-1.19.31s-.94.49-1.44.86c-.5.37-1.01.81-1.51,1.32-.51.51-.97,1.06-1.39,1.65h7.78Z"/>
          <path class="cls-2" d="M124.55,41.19v-9.74l1.32-.37v11.35h-3.59v-1.23h2.27Z"/>
          <path class="cls-2" d="M127.87,31.45l1.32-.37v11.35h-1.32v-10.97Z"/>
          <path class="cls-2" d="M143.17,31.45l1.32-.37v10.8c0,.7-.11,1.32-.33,1.87-.22.55-.53,1.02-.93,1.4s-.88.68-1.44.88c-.56.2-1.17.31-1.85.31s-1.28-.11-1.82-.32c-.54-.22-1-.5-1.38-.85-.38-.35-.68-.73-.89-1.16-.21-.43-.32-.85-.32-1.27,0-.62.05-1.15.16-1.59.11-.45.24-.83.4-1.17.16-.34.32-.63.5-.86.17-.24.32-.46.46-.67h.97c-.3.49-.56,1.04-.8,1.65s-.36,1.21-.36,1.79c0,1.09.28,1.89.83,2.4.55.51,1.31.76,2.26.76.39,0,.75-.06,1.09-.18.34-.12.65-.28.92-.5s.5-.46.69-.73c.19-.28.32-.58.4-.91.02-.11.05-.23.07-.36.02-.12.03-.25.03-.38v-10.53Z"/>
          <path class="cls-2" d="M152.67,42.42c-.01.27-.08.62-.2,1.03-.13.42-.34.82-.65,1.21s-.72.75-1.25,1.06c-.52.31-1.19.5-2,.57l-.38-1.2c.52-.04,1-.15,1.44-.36.18-.08.36-.19.55-.32.18-.13.35-.29.5-.48.15-.19.29-.41.4-.66.11-.25.19-.54.22-.87h-1.93c-1.04,0-1.81-.23-2.32-.69s-.77-1.18-.77-2.15c0-.44.11-.89.32-1.32.22-.44.56-.85,1.04-1.22s1.09-.71,1.84-.99c.75-.28,1.65-.5,2.71-.65.14.82.25,1.72.35,2.68.1.97.15,2.01.15,3.11h1.49v1.23h-1.5ZM151.34,41.19c0-.1,0-.2,0-.31,0-.1,0-.21,0-.31,0-.27,0-.57-.02-.88s-.03-.63-.05-.95c-.02-.32-.05-.64-.08-.96-.03-.32-.06-.61-.09-.89-1.2.29-2.06.64-2.59,1.07-.53.43-.81.96-.83,1.58,0,.17.02.35.06.54.04.19.12.37.23.53s.26.3.45.41c.18.11.42.16.72.16h2.22Z"/>
          <path class="cls-2" d="M157.25,41.19h2.26v1.23h-5.85v-1.23h2.27v-9.74l1.32-.37v10.12Z"/>
          <path class="cls-2" d="M170.72,42.42h-11.71l-.02-1.23h8.58c-.33-.67-.65-1.29-.96-1.85-.31-.57-.61-1.05-.9-1.46-.29-.41-.58-.73-.87-.97-.29-.23-.59-.35-.9-.35s-.6.12-.91.36-.61.54-.91.91l-.87-.79c.22-.24.44-.47.68-.69s.48-.42.74-.6c.26-.18.54-.32.83-.42.29-.1.61-.15.95-.15.38,0,.72.12,1.04.35s.64.57.96,1.02c.32.44.66.99,1.03,1.64.37.65.8,1.39,1.27,2.22.16.27.35.47.56.6.22.13.45.19.7.19h.68v1.23Z"/>
          <path class="cls-2" d="M173.8,41.19h2.26v1.23h-5.85v-1.23h2.27v-9.74l1.32-.37v10.12Z"/>
          <path class="cls-2" d="M177.82,41.19v-9.74l1.32-.37v11.35h-3.59v-1.23h2.27Z"/>
          <path class="cls-2" d="M189.66,45c-.52,0-1.05-.09-1.58-.27-.53-.18-1.01-.45-1.43-.8-.42-.36-.76-.81-1.03-1.35-.26-.54-.39-1.18-.39-1.92,0-.49.05-.93.15-1.32s.21-.73.35-1.03c.14-.3.28-.57.44-.8s.29-.44.42-.63h1.01c-.1.23-.22.46-.34.7s-.24.48-.35.73c-.11.25-.2.5-.27.75-.07.25-.11.5-.11.73,0,.35.03.76.1,1.22.07.46.22.9.46,1.31s.58.75,1.03,1.03c.45.28,1.06.42,1.82.42h.29c.5,0,.94-.09,1.31-.27.37-.18.68-.43.93-.75s.44-.69.56-1.11c.13-.42.19-.87.19-1.35.01-.74-.03-1.49-.13-2.26-.1-.77-.23-1.52-.4-2.25l1.37-.44c.34,1.61.51,3.2.51,4.79,0,.92-.13,1.7-.38,2.32-.25.62-.58,1.12-1,1.5-.42.38-.89.65-1.44.81-.54.16-1.11.24-1.7.24h-.39ZM189.01,34.06c0-.27.09-.5.27-.68.18-.18.4-.27.67-.27s.48.09.66.27c.18.18.27.41.27.68s-.09.48-.27.65c-.18.17-.4.26-.66.26s-.49-.09-.67-.26c-.18-.17-.27-.39-.27-.65Z"/>
          <path class="cls-2" d="M198.11,45.1c.52-.04,1-.15,1.44-.36.18-.08.36-.19.55-.32.18-.13.35-.29.5-.48.15-.19.29-.41.4-.66.11-.25.19-.54.22-.87h-1.93c-1.04,0-1.81-.23-2.32-.69s-.77-1.18-.77-2.15c0-.44.11-.89.32-1.32.22-.44.56-.85,1.04-1.22s1.09-.71,1.84-.99c.75-.28,1.65-.5,2.71-.65.16.97.29,2.04.39,3.21.1,1.17.13,2.44.09,3.81-.01.27-.08.62-.2,1.03-.13.42-.34.82-.65,1.21s-.72.75-1.25,1.06c-.52.31-1.19.5-2,.57l-.38-1.2ZM201.25,41.19c0-.1,0-.2,0-.31,0-.1,0-.21,0-.31,0-.27,0-.57-.02-.88s-.03-.63-.05-.95c-.02-.32-.05-.64-.08-.96-.03-.32-.06-.61-.09-.89-1.2.29-2.06.64-2.59,1.07-.53.43-.81.96-.83,1.58,0,.17.02.35.06.54.04.19.12.37.23.53s.26.3.45.41c.18.11.42.16.72.16h2.22Z"/>
          <path class="cls-2" d="M204.26,31.45l1.32-.37v11.35h-1.32v-10.97Z"/>
        </g>
      </g>
      <g>
        <g>
          <path class="cls-1" d="M36.39,18.85c-4.43,1.9-9.24,2.93-13.91,4.32-4.95,1.48-9.45,3.56-11.59,8.72-1.06,2.51-1.5,5.09-1.06,7.72-3.12-3.89-4.97-8.84-4.97-14.19,0-6.73,2.93-12.78,7.6-16.93-.02,5.23,0,10.46,0,15.69,0,.33.02.68.05.94,1.64-.94,3.17-1.92,4.78-2.65,1.67-.73,3.42-1.24,5.32-1.9,0-3.42-.05-6.92.05-10.41.02-.59.54-1.45,1.06-1.69,4.13-1.92,9.69.82,10.79,5.28.28,1.15.35,2.35.52,3.54,2.42-1.56,3.79-4.24,3.47-6.85-.42-3.44-4.79-6.65-8.82-6.9-3-.24-5.03-.24-8.02-.01,1.58-.12,3.89-.8,5.93-.8,6.82,0,10.04,2.86,10.34,3.1,5.18,4.34,4.67,10.39-1.55,13.04Z"/>
          <path class="cls-1" d="M50.28,25.42c0,11.66-8.79,21.27-20.1,22.56-.84.09-1.71.14-2.58.14-1.34,0-2.6-.12-3.85-.33-.75-.12-1.12-.28-1.12-.28.07-3.17,0-7.5,0-10.71-3.42.66-7.74,2.96-9.47,6.17-.61-.52-1.2-1.06-1.74-1.62.94-2.91,2.98-4.83,5.77-5.77,4.83-1.62,9.78-2.98,14.8-3.89,9.5-1.78,14.49-7.22,14.07-16.02-.12-2.27-1.31-4.85-3.05-6.9,4.48,4.15,7.27,10.06,7.27,16.65Z"/>
          <path class="cls-1" d="M42.11,10.03c4.89,10.68-2.09,15.68-11.88,17.67-7.79,1.74-16.24,3.83-19.52,11.9,1.47-9.05,11.18-12.51,18.94-14.17,9.03-1.85,14.95-4.82,12.46-15.4h0Z"/>
        </g>
        <path class="cls-1" d="M46.32,8.73c15.74,16.66,2.53,45.39-20.49,44.37C11.18,52.89-1.21,39.2.09,24.6,1.4,1.59,31.35-8.63,46.32,8.73h0ZM46.32,8.73C37.27-1.56,20.09-2.21,10.51,7.48c-22.34,23.02,8.24,56.89,33.41,37,10.62-8.55,11.72-25.71,2.4-35.76h0Z"/>
      </g>
    </g>
  </g>
</svg>