<?xml version="1.0" encoding="UTF-8"?>
<svg id="Layer_2" xmlns="http://www.w3.org/2000/svg" viewBox="0 0 53.18 53.12">
  <defs>
    <style>
      .cls-1 {
        fill: #ed212c;
      }
    </style>
  </defs>
  <g id="Layer_1-2" data-name="Layer_1">
    <g>
      <g>
        <path class="cls-1" d="M36.39,18.85c-4.43,1.9-9.24,2.93-13.91,4.32-4.95,1.48-9.45,3.56-11.59,8.72-1.06,2.51-1.5,5.09-1.06,7.72-3.12-3.89-4.97-8.84-4.97-14.19,0-6.73,2.93-12.78,7.6-16.93-.02,5.23,0,10.46,0,15.69,0,.33.02.68.05.94,1.64-.94,3.17-1.92,4.78-2.65,1.67-.73,3.42-1.24,5.32-1.9,0-3.42-.05-6.92.05-10.41.02-.59.54-1.45,1.06-1.69,4.13-1.92,9.69.82,10.79,5.28.28,1.15.35,2.35.52,3.54,2.42-1.56,3.79-4.24,3.47-6.85-.42-3.44-4.79-6.65-8.82-6.9-3-.24-5.03-.24-8.02-.01,1.58-.12,3.89-.8,5.93-.8,6.82,0,10.04,2.86,10.34,3.1,5.18,4.34,4.67,10.39-1.55,13.04Z"/>
        <path class="cls-1" d="M50.28,25.42c0,11.66-8.79,21.27-20.1,22.56-.84.09-1.71.14-2.58.14-1.34,0-2.6-.12-3.85-.33-.75-.12-1.12-.28-1.12-.28.07-3.17,0-7.5,0-10.71-3.42.66-7.74,2.96-9.47,6.17-.61-.52-1.2-1.06-1.74-1.62.94-2.91,2.98-4.83,5.77-5.77,4.83-1.62,9.78-2.98,14.8-3.89,9.5-1.78,14.49-7.22,14.07-16.02-.12-2.27-1.31-4.85-3.05-6.9,4.48,4.15,7.27,10.06,7.27,16.65Z"/>
        <path class="cls-1" d="M42.11,10.03c4.89,10.68-2.09,15.68-11.88,17.67-7.79,1.74-16.24,3.83-19.52,11.9,1.47-9.05,11.18-12.51,18.94-14.17,9.03-1.85,14.95-4.82,12.46-15.4h0Z"/>
      </g>
      <path class="cls-1" d="M46.32,8.73c15.74,16.66,2.53,45.39-20.49,44.37C11.18,52.89-1.21,39.2.09,24.6,1.4,1.59,31.35-8.63,46.32,8.73h0ZM46.32,8.73C37.27-1.56,20.09-2.21,10.51,7.48c-22.34,23.02,8.24,56.89,33.41,37,10.62-8.55,11.72-25.71,2.4-35.76h0Z"/>
    </g>
  </g>
</svg>